Simulation
nRows=46
nColumns=15
endheader
time  TH_x TH_y TH_z SC_y  SC_z  SC_x  AC_y  AC_z  AC_x  GH_y  GH_z  GH_yy  EL_x  PS_y
0.0  0.000000  0.000000  0.000000  -39.669477081952394  8.328989456863301  43.59573089916795  38.30908758565821  -22.91831237310677  -28.647890327452632  -18.76526483218566  0.24510160085397464  43.11390960781259  22.85265220521525  120.000000
0.028900000000000006  0.000000  0.000000  0.000000  -39.81580861584278  8.23264942552319  43.45257090205258  38.36924909460448  -22.550281001792005  -28.636308498493687  -18.25821337439045  0.43643700266519636  42.76021590082897  22.782153426973093  120.000000
0.05780000000000001  0.000000  0.000000  0.000000  -39.82929418610851  8.119189390796212  43.276257135074154  38.42010433981117  -22.27481120965558  -28.594746827417527  -17.698465721065844  0.5269400492380417  42.46261214432415  22.64335263951334  120.000000
0.08670000000000001  0.000000  0.000000  0.000000  -39.80156681003141  8.059251936212611  42.99229278905295  38.386108264979384  -22.055042910540873  -28.579449629017994  -17.086840726252568  0.5429435165748792  42.224172913175074  22.501087973618557  120.000000
0.11560000000000002  0.000000  0.000000  0.000000  -39.81153814225387  8.05598196083528  42.60847318637138  38.23802465435501  -21.85723250193032  -28.601137099943994  -16.459472066206665  0.5176039295130246  42.011401020911286  22.365132039982164  120.000000
0.14450000000000002  0.000000  0.000000  0.000000  -39.892117148429556  8.095262306696599  42.196292999530804  38.04046347088865  -21.68569115018157  -28.635326274131543  -15.869539608518313  0.474880367243674  41.771816328394486  22.24333778743258  120.000000
0.17340000000000003  0.000000  0.000000  0.000000  -40.04756102140187  8.146827123570574  41.850256516870076  37.88211680935292  -21.56311048891721  -28.647890327481356  -15.366739632044178  0.44931225906587546  41.45560893716508  22.133545862815513  120.000000
0.20230000000000004  0.000000  0.000000  0.000000  -40.272928119613866  8.173154937506295  41.655694841489705  37.863317148739576  -21.51615185832526  -28.578709723888906  -14.997297003662833  0.4881730073055041  41.0166740984072  22.031826145714078  120.000000
0.23120000000000004  0.000000  0.000000  0.000000  -40.57229505940997  8.142623006677162  41.64661197504377  38.080009182716054  -21.56757406056762  -28.33400085904293  -14.792651611545939  0.6535214283939061  40.425538883691594  21.922364177480333  120.000000
0.26010000000000005  0.000000  0.000000  0.000000  -40.95032862482793  8.033943383134623  41.80459176625896  38.585301380257214  -21.723165950054334  -27.84450766238863  -14.76309938393965  1.0114653751277094  39.67691843144182  21.79613584267519  120.000000
0.28900000000000003  0.000000  0.000000  0.000000  -41.384313479513594  7.856633580258053  42.06473006365541  39.34687961178399  -21.96646903066467  -27.113817193684735  -14.881469491012338  1.625397724538437  38.807033759253336  21.671401014803912  120.000000
0.31790000000000007  0.000000  0.000000  0.000000  -41.82506019128615  7.6546114741220315  42.31481185663378  40.22986983274225  -22.255318511602688  -26.227601621916868  -15.079133223212535  2.556621261834236  37.89705232866457  21.604633023018085  120.000000
0.34680000000000005  0.000000  0.000000  0.000000  -42.210941664305075  7.487821289419679  42.42372675701823  41.045001482450125  -22.53461689448062  -25.33023406653929  -15.260403561227177  3.8503678153757845  37.05288528315027  21.67046735337225  120.000000
0.3757000000000001  0.000000  0.000000  0.000000  -42.50437185074405  7.405464179407921  42.30463776705314  41.62436085128175  -22.75168924303583  -24.555829152383904  -15.337365397742241  5.508990426346215  36.355429550748305  21.917035357691198  120.000000
0.40460000000000007  0.000000  0.000000  0.000000  -42.70089260296992  7.431712031385366  41.97297597134703  41.91087043514211  -22.877213645675262  -23.966159500998245  -15.264645587024642  7.466879531136873  35.80495986883191  22.32817678926  120.000000
0.4335000000000001  0.000000  0.000000  0.000000  -42.836736614808125  7.558626497946732  41.544841650995885  41.97411285407313  -22.91831235815196  -23.541375387835807  -15.045587854836844  9.603018103252557  35.30473689737651  22.822194021107663  120.000000
0.4624000000000001  0.000000  0.000000  0.000000  -42.98579675291878  7.753517273867778  41.18291013205645  41.94859522749668  -22.918312375882  -23.214903436403077  -14.711464505262267  11.785777754318097  34.69621925610767  23.280356835157214  120.000000
0.49130000000000007  0.000000  0.000000  0.000000  -43.221028381559975  7.9784818934195325  41.02350471217964  41.96946069796831  -22.91831164776543  -22.921492575666235  -14.289432569504426  13.903539527016497  33.825545553642804  23.601277749024838  120.000000
0.5202000000000001  0.000000  0.000000  0.000000  -43.57963563025929  8.197276977691326  41.131438797260216  42.1170177006521  -22.918312369100484  -22.62832590705354  -13.783826692091695  15.882867828349978  32.602822677879836  23.736095316175703  120.000000
0.5491000000000001  0.000000  0.000000  0.000000  -44.05330905982661  8.392768425792427  41.50306111533713  42.39918641459121  -22.89974735787113  -22.339050980976154  -13.180572815429166  17.700264662521704  31.021697246416853  23.692426219423176  120.000000
0.5780000000000001  0.000000  0.000000  0.000000  -44.602569174691546  8.572182661401074  42.09014629220846  42.76677873585717  -22.848132580093633  -22.08279877501532  -12.460105154658102  19.373218846246136  29.14819756129996  23.516276294099974  120.000000
0.6069000000000001  0.000000  0.000000  0.000000  -45.18017888089905  8.752644151607498  42.826407992925894  43.14300962791056  -22.7552604355148  -21.89739282432609  -11.610325102063678  20.941006714686605  27.089455959474083  23.26691672305076  120.000000
0.6358000000000001  0.000000  0.000000  0.000000  -45.74743933954815  8.952423581997996  43.65314208172414  43.460596396416825  -22.626152649702554  -21.812593362338795  -10.634825324575587  22.445742422220633  24.95549626620021  22.994788929945997  120.000000
0.6647000000000002  0.000000  0.000000  0.000000  -46.28403543151425  9.18096842513785  44.53173593625769  43.681692502777594  -22.473933444473474  -21.838422187852824  -9.55409719830845  23.91907549047273  22.830561892403445  22.730450339146934  120.000000
0.6936000000000001  0.000000  0.000000  0.000000  -46.78633526400288  9.437632560486025  45.44459179478471  43.80354600619436  -22.315828858326096  -21.963155823036598  -8.4010802861063  25.37679749371983  20.761242919387822  22.483345139707076  120.000000
0.7225000000000001  0.000000  0.000000  0.000000  -47.26213737318784  9.7146165925663  46.38828839388983  43.849690797594  -22.167854859357455  -22.158574572083428  -7.21239930820906  26.820888755446358  18.76096766635873  22.249683269046  120.000000
0.7514000000000002  0.000000  0.000000  0.000000  -47.725603817672734  10.001224552959696  47.36590725254683  43.85627529640038  -22.039640692723182  -22.38575768455778  -6.021062431729763  28.24374575172647  16.820314566962463  22.020225362603398  120.000000
0.7803000000000001  0.000000  0.000000  0.000000  -48.19175851476602  10.289529227760498  48.38127579303641  43.86190678047441  -21.932832152456257  -22.603901059066096  -4.851470123723741  29.631517726604574  14.918304532996595  21.786400433356206  120.000000
0.8092000000000001  0.000000  0.000000  0.000000  -48.67545436318065  10.575624115434495  49.434862085718976  43.89875586658177  -21.841001822741305  -22.77527705056537  -3.7181338595127116  30.96672620586663  13.031965745586875  21.543401002039914  120.000000
0.8381000000000002  0.000000  0.000000  0.000000  -49.18982730819908  10.85840369181495  50.521907667575185  43.98873493603733  -21.750984325990938  -22.867747640780866  -2.627681039518427  32.23057144369425  11.142538700970833  21.29041261742069  120.000000
0.8670000000000002  0.000000  0.000000  0.000000  -49.74538157844495  11.138405387204045  51.63187245820305  44.14544330976672  -21.645722583162925  -22.854691102345114  -1.582210630197721  33.4058514946204  9.23989271822428  21.02957019099196  120.000000
0.8959000000000001  0.000000  0.000000  0.000000  -50.34936901525682  11.416657439887565  52.7488476360753  44.37554574145105  -21.507788736340586  -22.71423396451981  -0.5837182265829359  34.480012167880375  7.325847823282684  20.76378323735171  120.000000
0.9248000000000002  0.000000  0.000000  0.000000  -51.006362336042514  11.693195060190448  53.852322935362885  44.681009292291726  -21.32238278691663  -22.428184183839278  0.36285697692161006  35.44829767451628  5.417042917305572  20.496016383823456  120.000000
0.9537000000000002  0.000000  0.000000  0.000000  -51.717920782115485  11.966908739580735  54.918613130008076  45.060857291206354  -21.079623119289785  -21.981506701837933  1.2483082776423675  36.31552224262875  3.5454436976295756  20.229125836116346  120.000000
0.9826000000000001  0.000000  0.000000  0.000000  -52.48324203673833  12.23541087057411  55.92263333826565  45.51321656460885  -20.775105962915074  -21.362713231911897  2.0596104640584647  37.095098735182745  1.7551353028827914  19.966057455584334  120.000000
1.0115000000000003  0.000000  0.000000  0.000000  -53.30006217959793  12.494768073344954  56.84033623549285  46.036033716490685  -20.408444770480614  -20.565006837933012  2.7818933340429024  37.80568509686028  0.09520454538852455  19.710080614963207  120.000000
1.0404000000000002  0.000000  0.000000  0.000000  -54.164899575150656  12.740144359424743  57.651506034135316  46.627799932347656  -19.980725253750894  -19.587062925081334  3.401714638764617  38.46618341592303  -1.3893327903347055  19.464704932031985  120.000000
1.0693000000000001  0.000000  0.000000  0.000000  -55.07252419916205  12.966167683324946  58.34222326064966  47.28645602875978  -19.491651861280314  -18.434411647188902  3.9102162065041774  39.091239696575194  -2.665833740206205  19.23318196033161  120.000000
1.0982000000000003  0.000000  0.000000  0.000000  -56.015624288292976  13.167015691365721  58.90565825900386  48.00723869804266  -18.938209890189018  -17.12044462964131  4.304657662984117  39.6877244338013  -3.719713715692192  19.01724424322728  120.000000
1.1271000000000002  0.000000  0.000000  0.000000  -56.98563702885156  13.3370432990023  59.34101237552412  48.781797093714545  -18.31603460132333  -15.668034685366017  4.588862334509731  40.25410450533943  -4.555106243731133  18.816857085144562  120.000000
1.1560000000000001  0.000000  0.000000  0.000000  -57.97278788237586  13.472865783554193  59.65307226679307  49.597343317096104  -17.62280004120895  -14.107921042738239  4.7721724008855535  40.783210847010196  -5.191233459459918  18.630171724898947  120.000000
1.1849000000000003  0.000000  0.000000  0.000000  -58.96477824763208  13.575294394704102  59.853031629554685  50.43523452076765  -16.861791535639348  -12.475721321855342  4.86740645095018  41.26695148988457  -5.6555822140207646  18.453787225540893  120.000000
1.2138000000000002  0.000000  0.000000  0.000000  -59.94690961967503  13.64893738701845  59.958873471490456  51.27325354777402  -16.045630396189203  -10.810240245253489  4.888627972001238  41.70026965432088  -5.9768726487456085  18.283752634433633  120.000000
1.2427000000000001  0.000000  0.000000  0.000000  -60.90302423413712  13.700750526754337  59.996085531999285  52.08838787872207  -15.198164167216547  -9.15328169238753  4.8492193414941696  42.08242147502962  -6.179454068652455  18.116923941239456  120.000000
1.2716000000000003  0.000000  0.000000  0.000000  -61.81602825813818  13.736987598443857  60.00000059590049  52.859611464888516  -14.35355386072586  -7.549575552263657  4.760565035119268  42.41465740628674  -6.281408550075502  17.95154235068147  120.000000
1.3005000000000002  0.000000  0.000000  0.000000  -62.66779062013108  13.763546548375311  59.99938239546443  53.56870525799979  -13.546747693224441  -6.040618253155484  4.634117615221755  42.70287258851756  -6.296256588445213  17.78910795488802  120.000000
